PathFileType	4	(X/Y/Z)	./resultDataOpenSim/trcMotMarkerGrf/sub09/qtm-12-05.trc
DataRate	CameraRate	NumFrames	NumMarkers	Units	OrigDataRate	OrigDataStartFrame	OrigNumFrames
250.000000	250.000000	13	24	m	250.000000	1	473
Frame#	Time	L.Toe.Tip			R.Toe.Tip			L.Ankle.Lat			R.Ankle.Lat			L.Ankle.Med			R.Ankle.Med			L.Heel			R.Heel			L.Knee.Lat			R.Knee.Lat			L.Knee.Med			R.Knee.Med			L.Thigh.Upper			R.Thigh.Upper			L.ASIS			R.ASIS			V.Sacral			L.Acromium			R.Acromium			C7			L.Elbow			R.Elbow			L.Wrist.Lat			R.Wrist.Lat
		X1	Y1	Z1	X2	Y2	Z2	X3	Y3	Z3	X4	Y4	Z4	X5	Y5	Z5	X6	Y6	Z6	X7	Y7	Z7	X8	Y8	Z8	X9	Y9	Z9	X10	Y10	Z10	X11	Y11	Z11	X12	Y12	Z12	X13	Y13	Z13	X14	Y14	Z14	X15	Y15	Z15	X16	Y16	Z16	X17	Y17	Z17	X18	Y18	Z18	X19	Y19	Z19	X20	Y20	Z20	X21	Y21	Z21	X22	Y22	Z22	X23	Y23	Z23	X24	Y24	Z24

1	0	-1.4778013	0.036940436	-0.069637665	-0.90909642	0.084213548	0.05211553	-1.6261063	0.080123064	-0.10543048	-1.0571877	0.067848807	0.083215452	-1.600673	0.098467452	-0.012085908	-1.0509241	0.10749498	-0.0074055438	NaN	NaN	NaN	-1.1151221	0.031902099	0.023310829	-1.4798381	0.47377584	-0.16637946	-1.1237437	0.52223423	0.12839193	-1.4766297	0.47277441	-0.039402151	-1.1242418	0.50296044	0.0012806792	-1.3661186	0.87919172	-0.20561708	-1.3317704	0.87065295	0.16362653	-1.2564852	0.94869606	-0.15314409	-1.2496307	0.95362451	0.087545653	-1.4142489	1.016285	-0.027759413	-1.2020377	1.390201	-0.19697866	-1.2447639	1.415047	0.1280061	-1.2837193	1.4605007	-0.043661776	-1.3004021	1.0218319	-0.2613042	-1.4249416	1.1011165	0.21073527	-1.0520269	0.9124637	-0.22600455	-1.3317142	0.8454775	0.23352995
2	0.004	-1.4777024	0.036888979	-0.069658004	-0.89190072	0.088305323	0.052835777	-1.6257524	0.080916197	-0.10537729	-1.0404179	0.067974328	0.083551153	-1.5993827	0.099354033	-0.01244393	-1.0351016	0.10768013	-0.0070392527	NaN	NaN	NaN	-1.094546	0.02954816	0.027399047	-1.4763695	0.47345335	-0.16644343	-1.117773	0.52060171	0.12847714	-1.4732065	0.47257036	-0.039401746	-1.1176504	0.50135863	0.0011245676	-1.3604473	0.87803624	-0.20539797	-1.3255962	0.86898837	0.16367829	-1.2508703	0.94732044	-0.15343709	-1.2431982	0.9520471	0.087514262	-1.4082543	1.0146803	-0.027490102	-1.1960942	1.3889161	-0.19674028	-1.2387681	1.4134913	0.12830568	-1.2779073	1.4591492	-0.043298054	-1.293781	1.0203473	-0.26136678	-1.4189989	1.0993317	0.21040389	-1.0447674	0.91248502	-0.22551239	-1.3258952	0.84374911	0.23379447
3	0.008	-1.4776023	0.036831469	-0.069680502	-0.87516456	0.092384584	0.053586813	-1.6253646	0.081714049	-0.10535656	-1.0238531	0.068219903	0.083857338	-1.5982651	0.1001927	-0.012732504	-1.0193199	0.1080264	-0.0066891234	NaN	NaN	NaN	-1.0751014	0.027765717	0.030164559	-1.4728235	0.47313357	-0.16648298	-1.1117305	0.51895459	0.12854977	-1.4697138	0.47235301	-0.039406324	-1.1110671	0.49977026	0.00097516111	-1.3547378	0.87689888	-0.20515552	-1.3193598	0.86732315	0.16374464	-1.2452051	0.94594845	-0.15371176	-1.2367545	0.9504975	0.087483054	-1.40224	1.0130587	-0.027228548	-1.1901312	1.3876427	-0.19649911	-1.2327809	1.4119275	0.12859559	-1.2721693	1.4578128	-0.042976095	-1.2871579	1.0188568	-0.26137466	-1.4130229	1.0975562	0.21008104	-1.037537	0.91247383	-0.22502598	-1.3200641	0.84202438	0.23406431
4	0.012	-1.4775007	0.036769167	-0.069708411	-0.85907209	0.096489861	0.054393415	-1.6249257	0.082537511	-0.10539508	-1.0076107	0.068652309	0.084145145	-1.5973481	0.10097026	-0.012937703	-1.0037005	0.1085909	-0.0063716114	NaN	NaN	NaN	-1.0569788	0.026634492	0.03149812	-1.4691489	0.47282466	-0.16650924	-1.1055604	0.5172994	0.12861244	-1.4661223	0.47210254	-0.039410356	-1.1045021	0.49819872	0.0008312102	-1.348959	0.87577196	-0.20488228	-1.3130164	0.86565295	0.16383351	-1.2394069	0.94460943	-0.15392983	-1.2302657	0.94898152	0.087453985	-1.396177	1.0114316	-0.026955574	-1.1841182	1.3863873	-0.19624247	-1.226774	1.4103599	0.12888098	-1.2664881	1.4564847	-0.042745674	-1.2805288	1.0173736	-0.26132495	-1.4069838	1.0957917	0.20977495	-1.0303466	0.91240126	-0.22454888	-1.3141952	0.84030529	0.23433734
5	0.016	-1.4773996	0.036710162	-0.069742849	-0.84361067	0.1006427	0.055253697	-1.6244328	0.083411501	-0.1055046	-0.99167173	0.069309969	0.084468716	-1.5965418	0.10171031	-0.013097111	-0.98842577	0.10933037	-0.0060991174	NaN	NaN	NaN	-1.0397672	0.025898335	0.032058577	-1.4653459	0.47252897	-0.16653973	-1.0992647	0.51566242	0.12866858	-1.4624316	0.47181426	-0.039406964	-1.0979808	0.49663665	0.00068545909	-1.3431048	0.87463591	-0.20458548	-1.3065553	0.86397699	0.16394565	-1.2334444	0.94332071	-0.15408567	-1.2237015	0.94749837	0.087436001	-1.3900536	1.009815	-0.026649743	-1.178057	1.3851562	-0.19596352	-1.220735	1.4088061	0.12918275	-1.2607639	1.4551582	-0.042579259	-1.2739041	1.0159226	-0.26124633	-1.4008774	1.0940477	0.20949529	-1.0232126	0.9122497	-0.22408234	-1.3082773	0.8385981	0.23460588
6	0.02	-1.4773014	0.036661399	-0.069781483	-0.8287201	0.1047959	0.056130442	-1.6238855	0.084346929	-0.10568242	-0.97580714	0.070268015	0.084903008	-1.5957613	0.10245622	-0.01326065	-0.97361353	0.11017346	-0.0058786878	NaN	NaN	NaN	-1.0231398	0.025380506	0.032337632	-1.4614171	0.4722304	-0.16657601	-1.0928819	0.51406888	0.12871383	-1.4586197	0.47150738	-0.039394922	-1.0915126	0.49507975	0.00053230039	-1.3371758	0.8734787	-0.20427344	-1.2999763	0.86229977	0.16407636	-1.2273481	0.94206475	-0.15421474	-1.217051	0.94605114	0.087436119	-1.3838693	1.0082119	-0.026300239	-1.1719765	1.383954	-0.19567296	-1.2146639	1.4072841	0.12951843	-1.2548696	1.4538547	-0.042277221	-1.2672929	1.0145184	-0.26115945	-1.3947056	1.0923346	0.20924696	-1.0161484	0.91201518	-0.22362772	-1.3023075	0.83690818	0.23486143
7	0.024	-1.4772047	0.036624347	-0.069824126	-0.81437188	0.10885319	0.056985178	-1.6232851	0.085343511	-0.10592287	-0.9598007	0.071585874	0.085460725	-1.594973	0.10325125	-0.013468207	-0.95927189	0.11108179	-0.0057089047	NaN	NaN	NaN	-1.0070346	0.025081506	0.032475124	-1.4573351	0.47191046	-0.1666174	-1.0864494	0.51253086	0.12875351	-1.4546416	0.47119743	-0.039378694	-1.085085	0.49354055	0.0003751688	-1.3311719	0.87230205	-0.20395223	-1.2932745	0.86063078	0.1642156	-1.2211587	0.94082324	-0.15434459	-1.2103246	0.94464501	0.087448096	-1.3776335	1.0066341	-0.025890637	-1.1658962	1.3827823	-0.19538308	-1.2085478	1.4058009	0.12987941	-1.2486757	1.452625	-0.041460407	-1.2607001	1.0131648	-0.26106694	-1.3884675	1.0906484	0.20902574	-1.0091575	0.9117061	-0.22318798	-1.2962801	0.83523779	0.23509867
8	0.028	-1.477106	0.0365963	-0.069875617	-0.80056909	0.11271703	0.05782359	-1.6226325	0.086403867	-0.10622529	-0.94387859	0.073143393	0.085975215	-1.594165	0.10411612	-0.013742312	-0.94531565	0.11206903	-0.0055790502	NaN	NaN	NaN	-0.99151421	0.025020973	0.032437611	-1.4530905	0.47156258	-0.16666341	-1.0799964	0.51103687	0.12880338	-1.4504688	0.47087437	-0.039367978	-1.0786732	0.49203951	0.00022788151	-1.3250932	0.87111481	-0.20362685	-1.2864362	0.85898108	0.16435849	-1.2149001	0.93959444	-0.15447521	-1.2035365	0.94328449	0.087463142	-1.37136	1.0051012	-0.025415318	-1.1598074	1.3816406	-0.19509038	-1.2023721	1.4043511	0.13024015	-1.2420932	1.451512	-0.039808909	-1.2541273	1.0118634	-0.26095804	-1.3821653	1.0889814	0.2088268	-1.0022354	0.91133679	-0.22276527	-1.2901841	0.83358883	0.23531822
9	0.032	-1.4770032	0.036572142	-0.069939841	-0.78733174	0.11632733	0.058669248	-1.6219244	0.087531531	-0.10659107	-0.92870677	0.074627958	0.086169969	-1.5933484	0.10503515	-0.014074625	-0.93169228	0.11315496	-0.0054971765	NaN	NaN	NaN	-0.97666115	0.02513832	0.032129534	-1.4487296	0.47118124	-0.1667064	-1.0735362	0.50956677	0.12887678	-1.4461219	0.47051561	-0.039373069	-1.0722397	0.49059351	0.00010489711	-1.318943	0.86992467	-0.20329757	-1.279454	0.85735848	0.16451504	-1.2085793	0.93837863	-0.15458983	-1.1967012	0.94197261	0.087481384	-1.3650198	1.0036147	-0.024920501	-1.1536915	1.3805298	-0.19478307	-1.1961322	1.402929	0.13058612	-1.2352302	1.4504969	-0.037532246	-1.2475761	1.0106173	-0.26082474	-1.3758088	1.0873422	0.20865361	-0.99537499	0.91091795	-0.22236129	-1.2840119	0.83196598	0.2355215
10	0.036	-1.4768952	0.036546994	-0.070016116	-0.77469322	0.11966978	0.059499153	-1.6211552	0.088730524	-0.1070207	-0.91478787	0.075770852	0.085941187	-1.5925972	0.10597493	-0.014420818	-0.91851864	0.11429784	-0.0055145174	NaN	NaN	NaN	-0.96252693	0.025329653	0.031502221	-1.4442869	0.47076299	-0.16674957	-1.0670245	0.50813785	0.12899222	-1.4416176	0.47011263	-0.039404616	-1.0657341	0.48921835	1.0575835e-05	-1.312725	0.86873563	-0.20295794	-1.2723338	0.85577097	0.16469936	-1.2021918	0.93717448	-0.15467213	-1.1898406	0.9407116	0.087506524	-1.3584801	1.0021386	-0.024520313	-1.1475386	1.3794542	-0.19445794	-1.1898267	1.4015351	0.13092362	-1.2284018	1.4494965	-0.035387841	-1.2410501	1.0094312	-0.26067374	-1.3694056	1.0857467	0.20851189	-0.98857038	0.9104556	-0.22197932	-1.277762	0.83037652	0.23570854
11	0.04	-1.4767794	0.03652071	-0.070102756	-0.76270537	0.12273377	0.06026571	-1.620321	0.090010208	-0.10751745	-0.902112	0.076518825	0.085450269	-1.5920477	0.10690726	-0.014716553	-0.90598592	0.11540311	-0.0056845487	NaN	NaN	NaN	-0.9490986	0.025508647	0.030645316	-1.4396788	0.47032437	-0.16682521	-1.0603776	0.50680836	0.12917131	-1.4369174	0.46967706	-0.039475984	-1.0591035	0.48794259	-5.4629171e-05	-1.3064335	0.86755122	-0.20259574	-1.2650771	0.85423433	0.1649162	-1.1957321	0.93598792	-0.15471739	-1.1829644	0.93950444	0.087545313	-1.3515476	1.0005972	-0.024372675	-1.1413475	1.3784177	-0.19412174	-1.1834601	1.4001723	0.1312694	-1.221862	1.4484281	-0.033988649	-1.234553	1.0083091	-0.26050712	-1.3629523	1.0841967	0.20840062	-0.98182518	0.90995412	-0.22162033	-1.2714314	0.82882731	0.23588211
12	0.044	-1.4766514	0.036499577	-0.070199821	-0.75142445	0.12547082	0.060961895	-1.6194183	0.091375992	-0.10808694	-0.89042371	0.076965714	0.084897102	-1.5918243	0.10780879	-0.014905782	-0.89416224	0.11639272	-0.0060086844	NaN	NaN	NaN	-0.93633284	0.025623539	0.029717976	-1.4346958	0.46990795	-0.1669687	-1.0535501	0.50561877	0.12941776	-1.431995	0.46922197	-0.039595185	-1.0523007	0.48681246	-8.0526078e-05	-1.3000511	0.86637944	-0.20219857	-1.2576827	0.85276625	0.16516143	-1.1891964	0.93482591	-0.15473181	-1.1760582	0.93835632	0.08761233	-1.3441701	0.99892708	-0.024569321	-1.1351205	1.3774198	-0.19378037	-1.1770435	1.3988432	0.13163225	-1.2156351	1.4472505	-0.033362567	-1.2280867	1.0072527	-0.26030867	-1.3564426	1.0826868	0.2083169	-0.97515617	0.90941298	-0.22127661	-1.2650194	0.8273198	0.23604654
13	0.048	-1.4765076	0.036490621	-0.070308854	-0.74087307	0.12780702	0.06160806	-1.6184412	0.092825164	-0.10873004	-0.87953486	0.077211114	0.084328124	-1.5919255	0.10867391	-0.014982001	-0.882996	0.11722966	-0.0064501581	NaN	NaN	NaN	-0.92425411	0.025649573	0.028762595	-1.4291457	0.46955904	-0.16718229	-1.0465427	0.50455113	0.12971543	-1.4268799	0.46874756	-0.03975561	-1.0452884	0.48586979	-4.96874e-05	-1.2935641	0.86523129	-0.20176539	-1.2501745	0.85137216	0.16542884	-1.1825789	0.9336842	-0.15472732	-1.1691098	0.93727157	0.087719823	-1.3366016	0.9971829	-0.024977163	-1.1288636	1.3764611	-0.19343395	-1.1705899	1.3975491	0.1320047	-1.2096202	1.4459553	-0.033222362	-1.2216548	1.0062647	-0.26007151	-1.349875	1.0812175	0.2082636	-0.96858412	0.90882388	-0.22093784	-1.258545	0.82584781	0.23620571
